<svg width="512" height="512" viewBox="0 0 32 32" fill="none" xmlns="http://www.w3.org/2000/svg">
    <defs>
        <linearGradient id="grad1" x1="0%" y1="0%" x2="100%" y2="100%">
          <stop offset="0%" stop-color="hsl(40, 90%, 60%)" />
          <stop offset="100%" stop-color="hsl(260, 85%, 65%)" />
        </linearGradient>
    </defs>
    <circle cx="16" cy="16" r="14" fill="url(#grad1)" />
    <path
        d="M16 7C11.0294 7 7 11.0294 7 16C7 20.9706 11.0294 25 16 25C20.9706 25 25 20.9706 25 16C25 11.0294 20.9706 7 16 7Z"
        fill="hsl(240, 10%, 4%)"
        opacity="0.8"
      />
    <path
        d="M16 9C12.134 9 9 12.134 9 16C9 19.866 12.134 23 16 23C19.866 23 23 19.866 23 16C23 12.134 19.866 9 16 9ZM16 20C13.7909 20 12 18.2091 12 16C12 13.7909 13.7909 12 16 12C18.2091 12 20 13.7909 20 16C20 18.2091 18.2091 20 16 20Z"
        fill="url(#grad1)"
      />
</svg>
